#!OML:ASF H:\Swim 2\Project 1\Capture day 1\Session 1\male.ASF
:FULLY-SPECIFIED
:DEGREES
1649
root -0.110921 13.5406 9.40458 68.1169 -13.9805 181.124
lowerback 33.356 -0.156422 -1.48102
upperback -0.334082 -1.55923 -1.89987
thorax -17.8576 -0.791088 -0.553998
lowerneck -25.3263 2.91212 -6.11298
upperneck 25.6285 6.66743 -1.11419
head 12.5879 1.88933 1.70757
rclavicle 7.95139e-016 2.55935e-014
rhumerus -1442.12 20.2469 645.517
rradius 33.5776
rwrist 670.541
rhand -16.7609 -24.1067
rfingers 7.12502
rthumb 9.46603 -53.8741
lclavicle 7.95139e-016 2.55935e-014
lhumerus -1805.04 9.43395 -16.3694
lradius 68.1874
lwrist -1776.86
lhand -3.70728 -7.13276
lfingers 7.12502
lthumb 22.035 21.6319
rfemur 50.5793 13.0335 16.3293
rtibia 17.9888
rfoot 22.218 6.87039
rtoes 14.4555
lfemur 41.2731 -9.5464 -34.5371
ltibia 29.6855
lfoot 13.1466 10.4162
ltoes 36.0114
1650
root -0.0969607 13.5391 9.40268 68.15 -13.706 181.057
lowerback 33.3708 -0.171247 -1.47653
upperback -0.38082 -1.57673 -1.9094
thorax -17.9227 -0.797034 -0.559431
lowerneck -25.4405 2.97323 -5.93034
upperneck 25.3256 6.74391 -1.33607
head 12.5043 1.92758 1.60518
rclavicle -1.72943e-014 -4.11733e-014
rhumerus -1442.15 20.6081 645.5
rradius 33.5574
rwrist 670.321
rhand -16.7851 -24.1959
rfingers 7.12502
rthumb 9.4427 -53.9644
lclavicle -1.72943e-014 -4.11733e-014
lhumerus -1805.02 8.5145 -15.8173
lradius 67.8264
lwrist -1776.75
lhand -3.70085 -7.12555
lfingers 7.12502
lthumb 22.0412 21.6384
rfemur 50.576 13.0409 16.2994
rtibia 18.0795
rfoot 22.1425 6.85754
rtoes 14.7546
lfemur 41.2994 -9.44407 -34.5585
ltibia 29.6893
lfoot 13.306 10.199
ltoes 35.4479
1651
root -0.0828054 13.5373 9.40036 68.1761 -13.4382 180.983
lowerback 33.3874 -0.181196 -1.47592
upperback -0.417791 -1.58907 -1.91288
thorax -17.976 -0.800718 -0.558194
lowerneck -25.611 3.02443 -5.79988
upperneck 25.077 6.82179 -1.51858
head 12.4501 1.96236 1.52874
rclavicle 5.96354e-015 6.75868e-015
rhumerus -1442.19 20.9607 645.492
rradius 33.5551
rwrist 670.115
rhand -16.8156 -24.2591
rfingers 7.12502
rthumb 9.41322 -54.0289
lclavicle 5.96354e-015 6.75868e-015
lhumerus -1805.06 7.62477 -15.218
lradius 67.5292
lwrist -1776.58
lhand -3.63767 -7.07545
lfingers 7.12502
lthumb 22.1019 21.6814
rfemur 50.5789 13.0547 16.26
rtibia 18.1754
rfoot 22.0438 6.84873
rtoes 15.0783
lfemur 41.3375 -9.33138 -34.5892
ltibia 29.6897
lfoot 13.4687 9.99164
ltoes 34.8613
1652
root -0.0680968 13.5355 9.39864 68.2235 -13.1641 180.905
lowerback 33.3787 -0.192386 -1.46926
upperback -0.456237 -1.59729 -1.90768
thorax -18.0198 -0.802454 -0.55278
lowerneck -25.7959 3.07505 -5.69559
upperneck 24.855 6.90557 -1.68559
head 12.4078 1.99676 1.46419
rclavicle -7.7526e-015 -2.50966e-015
rhumerus -1442.23 21.288 645.485
rradius 33.5676
rwrist 669.935
rhand -16.8392 -24.3564
rfingers 7.12502
rthumb 9.39053 -54.1272
lclavicle -7.7526e-015 -2.50966e-015
lhumerus -1805.14 6.75103 -14.5669
lradius 67.2975
lwrist -1776.38
lhand -3.53069 -6.97877
lfingers 7.12502
lthumb 22.2046 21.7658
rfemur 50.5598 13.0667 16.2226
rtibia 18.2753
rfoot 21.972 6.85827
rtoes 15.2732
lfemur 41.3581 -9.2192 -34.6038
ltibia 29.6872
lfoot 13.6344 9.78172
ltoes 34.2485
1653
root -0.0526503 13.5341 9.3977 68.2995 -12.8868 180.829
lowerback 33.3372 -0.205386 -1.46219
upperback -0.499644 -1.60433 -1.89709
thorax -18.0547 -0.802943 -0.542566
lowerneck -25.9589 3.13294 -5.59048
upperneck 24.6218 6.99652 -1.85795
head 12.3574 2.03378 1.39816
rclavicle -1.70955e-014 3.19546e-014
rhumerus -1442.29 21.5648 645.464
rradius 33.5871
rwrist 669.801
rhand -16.8437 -24.4916
rfingers 7.12502
rthumb 9.38616 -54.2626
lclavicle -1.70955e-014 3.19546e-014
lhumerus -1805.21 5.86724 -13.9019
lradius 67.0691
lwrist -1776.12
lhand -3.41435 -6.8493
lfingers 7.12502
lthumb 22.3163 21.882
rfemur 50.5142 13.074 16.1821
rtibia 18.3754
rfoot 21.9293 6.88586
rtoes 15.3448
lfemur 41.3531 -9.11317 -34.6051
ltibia 29.6825
lfoot 13.8002 9.56479
ltoes 33.6153
1654
root -0.0361483 13.5331 9.39789 68.4161 -12.6053 180.758
lowerback 33.2501 -0.221709 -1.45615
upperback -0.549994 -1.61197 -1.88149
thorax -18.0775 -0.802656 -0.526571
lowerneck -26.1022 3.1996 -5.48094
upperneck 24.3786 7.09486 -2.0326
head 12.2996 2.07435 1.33139
rclavicle 2.38542e-015 -3.32716e-014
rhumerus -1442.36 21.7963 645.433
rradius 33.6091
rwrist 669.705
rhand -16.8164 -24.6813
rfingers 7.12502
rthumb 9.41252 -54.4511
lclavicle 2.38542e-015 -3.32716e-014
lhumerus -1805.26 4.96807 -13.2288
lradius 66.8335
lwrist -1775.86
lhand -3.32262 -6.73825
lfingers 7.12502
lthumb 22.4043 21.9825
rfemur 50.4323 13.074 16.1398
rtibia 18.4709
rfoot 21.9294 6.92552
rtoes 15.2748
lfemur 41.3072 -9.01872 -34.5865
ltibia 29.6781
lfoot 13.9627 9.34969
ltoes 32.9916
1655
root -0.018516 13.5325 9.39903 68.5677 -12.3198 180.695
lowerback 33.1271 -0.241293 -1.45249
upperback -0.608717 -1.62121 -1.86108
thorax -18.0942 -0.801897 -0.503747
lowerneck -26.1985 3.27736 -5.35768
upperneck 24.098 7.20068 -2.2267
head 12.22 2.11879 1.255
rclavicle 6.36111e-015 -1.96797e-014
rhumerus -1442.44 21.9776 645.389
rradius 33.6223
rwrist 669.646
rhand -16.7711 -24.8193
rfingers 7.12502
rthumb 9.45623 -54.5871
lclavicle 6.36111e-015 -1.96797e-014
lhumerus -1805.3 4.05823 -12.5448
lradius 66.5998
lwrist -1775.65
lhand -3.28394 -6.68008
lfingers 7.12502
lthumb 22.4414 22.0362
rfemur 50.3201 13.0656 16.0954
rtibia 18.5597
rfoot 21.9752 6.97681
rtoes 15.0825
lfemur 41.2258 -8.9384 -34.5518
ltibia 29.6756
lfoot 14.1177 9.13679
ltoes 32.3822
1656
root -9.72372e-005 13.5319 9.40029 68.7277 -12.0371 180.636
lowerback 32.9975 -0.261125 -1.45401
upperback -0.669736 -1.63198 -1.83869
thorax -18.1103 -0.801072 -0.475327
lowerneck -26.2919 3.36514 -5.22012
upperneck 23.8168 7.31686 -2.43513
head 12.1414 2.16641 1.17288
rclavicle -4.77083e-015 9.83984e-015
rhumerus -1442.51 22.1384 645.339
rradius 33.621
rwrist 669.598
rhand -16.7326 -24.8753
rfingers 7.12502
rthumb 9.49335 -54.6414
lclavicle -4.77083e-015 9.83984e-015
lhumerus -1805.34 3.14549 -11.8443
lradius 66.3705
lwrist -1775.52
lhand -3.27248 -6.65128
lfingers 7.12502
lthumb 22.4524 22.0636
rfemur 50.2028 13.0538 16.0429
rtibia 18.644
rfoot 22.0524 7.01979
rtoes 14.864
lfemur 41.1347 -8.86278 -34.5163
ltibia 29.6762
lfoot 14.2672 8.93667
ltoes 31.7947
1657
root 0.0187252 13.5309 9.40079 68.8712 -11.7577 180.579
lowerback 32.8923 -0.280079 -1.4576
upperback -0.728856 -1.64391 -1.81581
thorax -18.1348 -0.800764 -0.444373
lowerneck -26.4376 3.4406 -5.13348
upperneck 23.6018 7.4256 -2.57874
head 12.0939 2.21073 1.12413
rclavicle -1.07344e-014 1.47598e-014
rhumerus -1442.59 22.2808 645.285
rradius 33.608
rwrist 669.565
rhand -16.7055 -24.8519
rfingers 7.12502
rthumb 9.5195 -54.6169
lclavicle -1.07344e-014 1.47598e-014
lhumerus -1805.38 2.24028 -11.1205
lradius 66.1381
lwrist -1775.49
lhand -3.27586 -6.65618
lfingers 7.12502
lthumb 22.4492 22.0591
rfemur 50.1021 13.0437 15.9877
rtibia 18.7292
rfoot 22.1225 7.03073
rtoes 14.7721
lfemur 41.0616 -8.7903 -34.4936
ltibia 29.6791
lfoot 14.41 8.74496
ltoes 31.2115
1658
root 0.037483 13.5292 9.40033 68.9869 -11.4827 180.515
lowerback 32.8257 -0.295975 -1.45845
upperback -0.783521 -1.65343 -1.79347
thorax -18.1713 -0.800175 -0.416061
lowerneck -26.6419 3.50216 -5.09737
upperneck 23.4579 7.52522 -2.65386
head 12.0801 2.25142 1.10978
rclavicle 2.78299e-015 -4.87022e-015
rhumerus -1442.67 22.4166 645.226
rradius 33.5873
rwrist 669.552
rhand -16.7175 -24.7478
rfingers 7.12502
rthumb 9.50795 -54.5133
lclavicle 2.78299e-015 -4.87022e-015
lhumerus -1805.42 1.35185 -10.372
lradius 65.9086
lwrist -1775.55
lhand -3.27455 -6.66766
lfingers 7.12502
lthumb 22.4504 22.0475
rfemur 50.0268 13.0427 15.9287
rtibia 18.817
rfoot 22.1705 7.0637
rtoes 14.7015
lfemur 41.0185 -8.71177 -34.4894
ltibia 29.6839
lfoot 14.5512 8.56427
ltoes 30.6098
1659
root 0.0558934 13.5266 9.39868 69.0708 -11.2202 180.441
lowerback 32.801 -0.306411 -1.46116
upperback -0.830567 -1.66042 -1.77572
thorax -18.2176 -0.799273 -0.392342
lowerneck -26.8745 3.55875 -5.07217
upperneck 23.3462 7.61926 -2.70234
head 12.0822 2.2903 1.10728
rclavicle 1.59028e-014 -1.82385e-014
rhumerus -1442.74 22.5373 645.162
rradius 33.5631
rwrist 669.563
rhand -16.7495 -24.6206
rfingers 7.12502
rthumb 9.47702 -54.3875
lclavicle 1.59028e-014 -1.82385e-014
lhumerus -1805.46 0.483365 -9.60327
lradius 65.6733
lwrist -1775.66
lhand -3.27146 -6.65708
lfingers 7.12502
lthumb 22.4534 22.0577
rfemur 49.9798 13.0539 15.8543
rtibia 18.9092
rfoot 22.1896 7.10714
rtoes 14.7036
lfemur 41.0106 -8.62722 -34.5192
ltibia 29.6883
lfoot 14.7007 8.3986
ltoes 29.9862
1660
root 0.0744494 13.5238 9.39698 69.1573 -10.9572 180.361
lowerback 32.7846 -0.315827 -1.45015
upperback -0.881928 -1.6627 -1.76665
thorax -18.2739 -0.797987 -0.387825
lowerneck -27.0069 3.63629 -4.95368
upperneck 23.1435 7.71343 -2.83617
head 12.0384 2.33198 1.05483
rclavicle -1.55052e-014 1.89342e-014
rhumerus -1442.82 22.6267 645.079
rradius 33.5413
rwrist 669.609
rhand -16.7924 -24.5429
rfingers 7.12502
rthumb 9.43561 -54.3116
lclavicle -1.55052e-014 1.89342e-014
lhumerus -1805.47 -0.381591 -8.82698
lradius 65.4324
lwrist -1775.76
lhand -3.27107 -6.61899
lfingers 7.12502
lthumb 22.4538 22.0958
rfemur 49.9283 13.0715 15.7802
rtibia 19.0038
rfoot 22.2129 7.18564
rtoes 14.6204
lfemur 41.0027 -8.54542 -34.5518
ltibia 29.6908
lfoot 14.8572 8.22825
ltoes 29.3327
1661
root 0.093303 13.5208 9.39502 69.2436 -10.7067 180.276
lowerback 32.7751 -0.318403 -1.43479
upperback -0.93891 -1.65776 -1.7737
thorax -18.3412 -0.794865 -0.406863
lowerneck -27.1244 3.70113 -4.83505
upperneck 22.959 7.78272 -2.94431
head 11.998 2.36622 1.00783
rclavicle 3.57812e-015 -1.93815e-015
rhumerus -1442.94 22.6725 644.967
rradius 33.5204
rwrist 669.687
rhand -16.8238 -24.5336
rfingers 7.12502
rthumb 9.40539 -54.3037
lclavicle 3.57812e-015 -1.93815e-015
lhumerus -1805.44 -1.24015 -8.03954
lradius 65.1976
lwrist -1775.81
lhand -3.26577 -6.54502
lfingers 7.12502
lthumb 22.4589 22.1691
rfemur 49.8769 13.1003 15.6932
rtibia 19.0977
rfoot 22.2292 7.26896
rtoes 14.5581
lfemur 40.9983 -8.4639 -34.6035
ltibia 29.69
lfoot 15.0246 8.05938
ltoes 28.656
1662
root 0.113103 13.5182 9.39369 69.3556 -10.464 180.2
lowerback 32.7466 -0.31918 -1.41262
upperback -1.01019 -1.65006 -1.80092
thorax -18.4188 -0.791711 -0.453796
lowerneck -27.2804 3.72811 -4.7721
upperneck 22.8472 7.80668 -2.96519
head 11.9865 2.38471 0.996394
rclavicle -3.18055e-015 -9.0447e-015
rhumerus -1443.08 22.6677 644.817
rradius 33.4969
rwrist 669.788
rhand -16.825 -24.5874
rfingers 7.12502
rthumb 9.40421 -54.3576
lclavicle -3.18055e-015 -9.0447e-015
lhumerus -1805.37 -2.1052 -7.25295
lradius 64.9638
lwrist -1775.78
lhand -3.25993 -6.46529
lfingers 7.12502
lthumb 22.4645 22.2482
rfemur 49.8051 13.1295 15.6009
rtibia 19.1857
rfoot 22.2348 7.33492
rtoes 14.5292
lfemur 40.9681 -8.39455 -34.6548
ltibia 29.687
lfoot 15.1942 7.88397
ltoes 27.9871
1663
root 0.133828 13.5159 9.39286 69.4885 -10.2237 180.126
lowerback 32.7049 -0.317936 -1.37765
upperback -1.09546 -1.63705 -1.84647
thorax -18.509 -0.788069 -0.530962
lowerneck -27.4807 3.7092 -4.78973
upperneck 22.827 7.77911 -2.87152
head 12.0097 2.38562 1.03387
rclavicle -7.95139e-016 3.3694e-014
rhumerus -1443.27 22.6152 644.627
rradius 33.4752
rwrist 669.913
rhand -16.8266 -24.6465
rfingers 7.12502
rthumb 9.40267 -54.4167
lclavicle -7.95139e-016 3.3694e-014
lhumerus -1805.25 -2.97533 -6.46747
lradius 64.7376
lwrist -1775.67
lhand -3.25651 -6.40733
lfingers 7.12502
lthumb 22.4678 22.3057
rfemur 49.7142 13.161 15.5096
rtibia 19.2704
rfoot 22.2392 7.40427
rtoes 14.4909
lfemur 40.918 -8.33269 -34.6985
ltibia 29.682
lfoot 15.3603 7.7029
ltoes 27.3344
